# xmcd
#
# Track frame offsets:
#	150
#	15730
#	30487
#	45490
#	58137
#	72087
#	87717
#	104822
#	118880
#	131670
#	141675
#
# Disc length: 2116 seconds
#
# Revision: 0
# Processed by: cddbd v1.4PL0 Copyright (c) Steve Scherf et al.
# Submitted via: dBpowerAMP V4.0
#
DISCID=aa08420b
DTITLE=George Chambers - Dance Time in Texas
DYEAR=1900
DGENRE=Country
TTITLE0=Chicken Dance
TTITLE1=Cotton Eyed Joe
TTITLE2=Schottische
TTITLE3=Jole Blon
TTITLE4=Put Your Little Foot
TTITLE5=Jesse Polka
TTITLE6=Peanuts
TTITLE7=Bunny Hop
TTITLE8=Hokey Pokey
TTITLE9=10 Pretty Girls
TTITLE10=Under The Double Eagle
EXTD=
EXTT0=
EXTT1=
EXTT2=
EXTT3=
EXTT4=
EXTT5=
EXTT6=
EXTT7=
EXTT8=
EXTT9=
EXTT10=
PLAYORDER=
